<svg width="172" height="38" viewBox="0 0 172 38" fill="none" xmlns="http://www.w3.org/2000/svg">
<g filter="url(#filter0_d_388_1066)">
<path d="M120.914 11.7734C122.664 11.8359 124.031 11.8672 125.016 11.8672C131.719 11.8281 135.43 11.7969 136.148 11.7734C136.25 12.5547 136.449 13.2969 136.746 14C137.043 14.6953 137.422 15.4375 137.883 16.2266C137.82 16.3594 137.684 16.4648 137.473 16.543C137.191 16.0117 136.852 15.5391 136.453 15.125C136.055 14.7109 135.551 14.3203 134.941 13.9531C134.34 13.5859 133.586 13.2852 132.68 13.0508C131.781 12.8164 130.754 12.6602 129.598 12.582H126.363C126.262 15.8867 126.211 18.375 126.211 20.0469H129.551C129.777 20.0469 129.988 20.0312 130.184 20C130.387 19.9609 130.574 19.8984 130.746 19.8125C130.918 19.7188 131.07 19.6328 131.203 19.5547C131.344 19.4688 131.484 19.3438 131.625 19.1797C131.766 19.0078 131.883 18.8672 131.977 18.7578C132.07 18.6406 132.184 18.4648 132.316 18.2305C132.449 17.9961 132.551 17.8125 132.621 17.6797C132.691 17.5469 132.797 17.3398 132.938 17.0586C133.086 16.7773 133.199 16.5664 133.277 16.4258C133.52 16.5195 133.668 16.6211 133.723 16.7305C133.395 17.3086 133.117 17.9492 132.891 18.6523C132.664 19.3555 132.551 19.9414 132.551 20.4102C132.551 21.5195 132.941 22.7422 133.723 24.0781C133.66 24.2031 133.512 24.3086 133.277 24.3945C133.191 24.2383 133.07 24.0156 132.914 23.7266C132.766 23.4297 132.648 23.2031 132.562 23.0469C132.477 22.8906 132.359 22.6914 132.211 22.4492C132.062 22.207 131.93 22.0195 131.812 21.8867C131.703 21.7539 131.559 21.6055 131.379 21.4414C131.207 21.2773 131.035 21.1562 130.863 21.0781C130.691 20.9922 130.492 20.9219 130.266 20.8672C130.047 20.8047 129.809 20.7734 129.551 20.7734H126.211C126.211 22.0156 126.254 24.5195 126.34 28.2852H130.078C131.234 28.207 132.262 28.0508 133.16 27.8164C134.066 27.582 134.82 27.2812 135.422 26.9141C136.031 26.5469 136.535 26.1562 136.934 25.7422C137.332 25.3281 137.672 24.8555 137.953 24.3242C138.164 24.4023 138.301 24.5039 138.363 24.6289C138.324 24.707 138.223 24.8945 138.059 25.1914C137.895 25.4883 137.785 25.6914 137.73 25.8008C137.676 25.9023 137.582 26.0859 137.449 26.3516C137.324 26.6094 137.23 26.8203 137.168 26.9844C137.105 27.1406 137.031 27.3398 136.945 27.582C136.867 27.8242 136.801 28.0625 136.746 28.2969C136.699 28.5234 136.66 28.7578 136.629 29H126.34C124.223 29 122.406 29.0234 120.891 29.0703C120.859 28.9766 120.844 28.8984 120.844 28.8359C120.844 28.7812 120.859 28.6758 120.891 28.5195C121.25 28.4883 121.539 28.457 121.758 28.4258C121.984 28.3867 122.258 28.3281 122.578 28.25C122.906 28.1719 123.156 28.0625 123.328 27.9219C123.5 27.7734 123.59 27.5977 123.598 27.3945C123.691 24.9492 123.738 22.4844 123.738 20C123.738 17.4688 123.699 15.2852 123.621 13.4492C123.613 13.2461 123.523 13.0742 123.352 12.9336C123.18 12.7852 122.93 12.6719 122.602 12.5938C122.281 12.5156 122.008 12.4609 121.781 12.4297C121.562 12.3906 121.273 12.3555 120.914 12.3242C120.883 12.1836 120.867 12.0859 120.867 12.0312C120.867 11.9844 120.883 11.8984 120.914 11.7734ZM151.031 16.7305C150.734 15.3008 150.188 14.1914 149.391 13.4023C148.602 12.6133 147.652 12.2188 146.543 12.2188C145.457 12.2188 144.613 12.4766 144.012 12.9922C143.418 13.5078 143.121 14.1953 143.121 15.0547C143.121 15.5312 143.164 15.9258 143.25 16.2383C143.336 16.5508 143.512 16.8555 143.777 17.1523C144.043 17.4414 144.43 17.6992 144.938 17.9258C145.445 18.1445 146.109 18.3555 146.93 18.5586C147.375 18.668 147.762 18.7695 148.09 18.8633C148.426 18.957 148.793 19.0859 149.191 19.25C149.598 19.4141 149.945 19.5898 150.234 19.7773C150.531 19.9648 150.824 20.1992 151.113 20.4805C151.41 20.7539 151.648 21.0586 151.828 21.3945C152.016 21.7305 152.164 22.1289 152.273 22.5898C152.391 23.043 152.449 23.5391 152.449 24.0781C152.449 24.7969 152.316 25.4609 152.051 26.0703C151.785 26.6719 151.438 27.1797 151.008 27.5938C150.578 28.0078 150.082 28.3594 149.52 28.6484C148.957 28.9375 148.387 29.1484 147.809 29.2812C147.23 29.4141 146.656 29.4805 146.086 29.4805C144.352 29.4805 142.504 29.0312 140.543 28.1328C140.582 27.2891 140.602 26.7695 140.602 26.5742C140.602 25.3008 140.496 24.0312 140.285 22.7656C140.371 22.7109 140.457 22.6836 140.543 22.6836C140.652 22.6836 140.75 22.7109 140.836 22.7656C141 23.7734 141.27 24.6641 141.645 25.4375C142.027 26.2109 142.465 26.8242 142.957 27.2773C143.449 27.7227 143.957 28.0586 144.48 28.2852C145.012 28.5039 145.547 28.6133 146.086 28.6133C147.312 28.6133 148.254 28.2969 148.91 27.6641C149.574 27.0234 149.906 26.1797 149.906 25.1328C149.906 24.0781 149.66 23.2852 149.168 22.7539C148.684 22.2148 147.754 21.7773 146.379 21.4414C144.66 21.0117 143.316 20.3789 142.348 19.543C141.387 18.6992 140.906 17.5859 140.906 16.2031C140.906 15.4766 141.023 14.8281 141.258 14.2578C141.5 13.6797 141.809 13.2188 142.184 12.875C142.566 12.5234 143.012 12.2344 143.52 12.0078C144.027 11.7734 144.527 11.6133 145.02 11.5273C145.52 11.4336 146.027 11.3867 146.543 11.3867C148.09 11.3867 149.699 11.7461 151.371 12.4648C151.324 12.9258 151.301 13.4062 151.301 13.9062C151.301 15.0781 151.395 16.0195 151.582 16.7305C151.48 16.7695 151.395 16.7891 151.324 16.7891C151.246 16.7891 151.148 16.7695 151.031 16.7305ZM166.078 16.7305C165.781 15.3008 165.234 14.1914 164.438 13.4023C163.648 12.6133 162.699 12.2188 161.59 12.2188C160.504 12.2188 159.66 12.4766 159.059 12.9922C158.465 13.5078 158.168 14.1953 158.168 15.0547C158.168 15.5312 158.211 15.9258 158.297 16.2383C158.383 16.5508 158.559 16.8555 158.824 17.1523C159.09 17.4414 159.477 17.6992 159.984 17.9258C160.492 18.1445 161.156 18.3555 161.977 18.5586C162.422 18.668 162.809 18.7695 163.137 18.8633C163.473 18.957 163.84 19.0859 164.238 19.25C164.645 19.4141 164.992 19.5898 165.281 19.7773C165.578 19.9648 165.871 20.1992 166.16 20.4805C166.457 20.7539 166.695 21.0586 166.875 21.3945C167.062 21.7305 167.211 22.1289 167.32 22.5898C167.438 23.043 167.496 23.5391 167.496 24.0781C167.496 24.7969 167.363 25.4609 167.098 26.0703C166.832 26.6719 166.484 27.1797 166.055 27.5938C165.625 28.0078 165.129 28.3594 164.566 28.6484C164.004 28.9375 163.434 29.1484 162.855 29.2812C162.277 29.4141 161.703 29.4805 161.133 29.4805C159.398 29.4805 157.551 29.0312 155.59 28.1328C155.629 27.2891 155.648 26.7695 155.648 26.5742C155.648 25.3008 155.543 24.0312 155.332 22.7656C155.418 22.7109 155.504 22.6836 155.59 22.6836C155.699 22.6836 155.797 22.7109 155.883 22.7656C156.047 23.7734 156.316 24.6641 156.691 25.4375C157.074 26.2109 157.512 26.8242 158.004 27.2773C158.496 27.7227 159.004 28.0586 159.527 28.2852C160.059 28.5039 160.594 28.6133 161.133 28.6133C162.359 28.6133 163.301 28.2969 163.957 27.6641C164.621 27.0234 164.953 26.1797 164.953 25.1328C164.953 24.0781 164.707 23.2852 164.215 22.7539C163.73 22.2148 162.801 21.7773 161.426 21.4414C159.707 21.0117 158.363 20.3789 157.395 19.543C156.434 18.6992 155.953 17.5859 155.953 16.2031C155.953 15.4766 156.07 14.8281 156.305 14.2578C156.547 13.6797 156.855 13.2188 157.23 12.875C157.613 12.5234 158.059 12.2344 158.566 12.0078C159.074 11.7734 159.574 11.6133 160.066 11.5273C160.566 11.4336 161.074 11.3867 161.59 11.3867C163.137 11.3867 164.746 11.7461 166.418 12.4648C166.371 12.9258 166.348 13.4062 166.348 13.9062C166.348 15.0781 166.441 16.0195 166.629 16.7305C166.527 16.7695 166.441 16.7891 166.371 16.7891C166.293 16.7891 166.195 16.7695 166.078 16.7305Z" fill="black"/>
</g>
<path d="M99.1107 13.4537C98.3863 11.6602 99.7113 9.31389 101.107 7.83384C100.566 5.87034 100.495 3.17754 101.975 1.93509C103.455 0.692642 106.095 1.22559 107.937 2.09679C109.636 0.974792 112.174 0.0738924 113.815 1.09689C115.456 2.11989 115.762 4.79784 115.503 6.81744C117.094 8.08629 118.736 10.223 118.269 12.0991C117.802 13.9751 115.352 15.0955 113.352 15.4717C112.636 17.3774 111.111 19.5983 109.182 19.7353C107.816 19.831 106.509 18.8591 105.513 17.6513C103.5 20.1593 102.077 22.8109 101.297 25.4162C102.49 23.6342 104.96 22.0997 110.1 22.0997C110.1 28.9555 105.08 30.3547 101.85 30.3547L96.5697 30.358C96.5697 25.865 98.1966 20.6065 101.998 15.6713C100.706 15.2638 99.5578 14.5543 99.1107 13.4537ZM106.333 13.0907C106.783 13.3715 107.284 13.5608 107.807 13.648C108.33 13.7351 108.865 13.7184 109.382 13.5987C109.898 13.4791 110.386 13.2588 110.818 12.9505C111.249 12.6423 111.616 12.252 111.897 11.8021C112.177 11.3522 112.367 10.8513 112.454 10.3282C112.541 9.80511 112.524 9.26995 112.405 8.7533C112.285 8.23666 112.065 7.74864 111.756 7.31711C111.448 6.88559 111.058 6.519 110.608 6.23829C109.699 5.67159 108.603 5.48908 107.559 5.7309C106.516 5.97272 105.612 6.61908 105.045 7.52777C104.478 8.43646 104.296 9.53305 104.538 10.5763C104.779 11.6196 105.426 12.524 106.334 13.0907H106.333ZM96.8667 19.2089C95.0797 22.7894 94.1128 26.5564 94.098 30.2722C88.6563 26.36 88.6497 19.1396 88.6497 12.2047C88.6497 12.2047 94.7052 13.9108 96.8667 19.2089Z" fill="black"/>
<path d="M93.173 3.3488C92.9794 3.25702 92.775 3.19003 92.5646 3.14943C92.7016 2.98358 92.8171 2.8011 92.9083 2.6063C93.3724 1.62661 93.1524 0.550676 92.4202 0.206926C91.688 -0.136824 90.7152 0.371926 90.2546 1.35161C90.1629 1.54526 90.0959 1.74968 90.0552 1.96005C89.8904 1.82336 89.7091 1.70787 89.5155 1.6163C88.5358 1.15224 87.4599 1.37224 87.1093 2.10443C86.7586 2.83661 87.2811 3.80943 88.2574 4.27005C88.4511 4.36167 88.6555 4.42865 88.8658 4.46943C88.7288 4.63527 88.6133 4.81776 88.5221 5.01255C88.0615 5.99224 88.2815 7.06474 89.0136 7.41193C89.7458 7.75911 90.7152 7.24693 91.1793 6.26724C91.2698 6.07344 91.3357 5.86903 91.3752 5.6588C91.5412 5.79559 91.7237 5.91107 91.9183 6.00255C92.898 6.46318 93.974 6.24318 94.3211 5.51099C94.6683 4.7788 94.1527 3.80943 93.173 3.34536V3.3488ZM90.6877 3.86443L90.6258 3.84036L90.6602 3.78193L90.6843 3.72005L90.7427 3.75443L90.8046 3.77849L90.7702 3.83693L90.7461 3.8988L90.6877 3.86443Z" fill="#090909" stroke="#020202" stroke-width="0.0625" stroke-miterlimit="10"/>
<g filter="url(#filter1_d_388_1066)">
<path d="M4.91406 11.7969C6.22656 11.8438 7.59375 11.8672 9.01562 11.8672H10.3633C10.9336 11.8594 11.918 11.8555 13.3164 11.8555C14.7227 11.8477 15.9219 11.8398 16.9141 11.832C17.9141 11.8242 18.9062 11.8047 19.8906 11.7734C19.9531 12.3125 20.0859 12.875 20.2891 13.4609C20.4922 14.0391 20.6875 14.5156 20.875 14.8906C21.0625 15.2578 21.3086 15.7031 21.6133 16.2266C21.5508 16.3594 21.4141 16.4648 21.2031 16.543C20.9219 16.0117 20.582 15.5391 20.1836 15.125C19.7852 14.7109 19.2812 14.3203 18.6719 13.9531C18.0703 13.5859 17.3164 13.2852 16.4102 13.0508C15.5117 12.8164 14.4883 12.6602 13.3398 12.582H10.3633C10.2617 15.957 10.2109 18.5078 10.2109 20.2344H13.5508C13.7461 20.2344 13.9297 20.2188 14.1016 20.1875C14.2734 20.1484 14.4336 20.0859 14.582 20C14.7383 19.9141 14.8711 19.832 14.9805 19.7539C15.0977 19.668 15.2188 19.543 15.3438 19.3789C15.4766 19.207 15.582 19.0664 15.6602 18.957C15.7383 18.8477 15.8359 18.6758 15.9531 18.4414C16.0703 18.1992 16.1602 18.0156 16.2227 17.8906C16.2852 17.7656 16.3789 17.5586 16.5039 17.2695C16.6367 16.9805 16.7344 16.7695 16.7969 16.6367C17.0703 16.7539 17.2188 16.8516 17.2422 16.9297C16.7812 18.1328 16.5508 19.3555 16.5508 20.5977C16.5508 21.832 16.7812 23.0586 17.2422 24.2773C17.1875 24.3867 17.0391 24.4883 16.7969 24.582C16.3203 23.4336 15.957 22.6641 15.707 22.2734C15.1289 21.4062 14.4102 20.9688 13.5508 20.9609H10.2109C10.2109 22.6406 10.2539 24.7852 10.3398 27.3945C10.3477 27.5977 10.4375 27.7734 10.6094 27.9219C10.7812 28.0625 11.0273 28.1719 11.3477 28.25C11.6758 28.3281 11.9492 28.3867 12.168 28.4258C12.3945 28.457 12.6875 28.4883 13.0469 28.5195C13.0781 28.6758 13.0938 28.7812 13.0938 28.8359C13.0938 28.8984 13.0781 28.9766 13.0469 29.0703C11.7188 29.0234 10.3594 29 8.96875 29C7.5625 29 6.20312 29.0234 4.89062 29.0703C4.85938 28.9766 4.84375 28.8984 4.84375 28.8359C4.84375 28.7812 4.85938 28.6758 4.89062 28.5195C5.125 28.4961 5.3125 28.4766 5.45312 28.4609C5.59375 28.4453 5.78516 28.418 6.02734 28.3789C6.27734 28.3398 6.47656 28.2969 6.625 28.25C6.78125 28.1953 6.94141 28.1289 7.10547 28.0508C7.26953 27.9727 7.39062 27.8789 7.46875 27.7695C7.55469 27.6602 7.59766 27.5352 7.59766 27.3945C7.69141 24.9492 7.73828 22.4844 7.73828 20C7.73828 17.4688 7.69922 15.2852 7.62109 13.4492C7.61328 13.2461 7.52344 13.0742 7.35156 12.9336C7.1875 12.793 6.9375 12.6836 6.60156 12.6055C6.26562 12.5273 5.99609 12.4766 5.79297 12.4531C5.58984 12.4219 5.29688 12.3867 4.91406 12.3477C4.88281 12.207 4.86719 12.1094 4.86719 12.0547C4.86719 12.0078 4.88281 11.9219 4.91406 11.7969ZM22.5391 11.7734C24.2891 11.8359 25.6484 11.8672 26.6172 11.8672C27.5859 11.8672 28.9453 11.8359 30.6953 11.7734C30.7266 11.8984 30.7422 11.9844 30.7422 12.0312C30.7422 12.0859 30.7266 12.1836 30.6953 12.3242C30.3359 12.3555 30.043 12.3906 29.8164 12.4297C29.5977 12.4609 29.3242 12.5156 28.9961 12.5938C28.6758 12.6719 28.4297 12.7852 28.2578 12.9336C28.0859 13.0742 27.9961 13.2461 27.9883 13.4492C27.8867 16.1055 27.8359 18.5781 27.8359 20.8672C27.8359 22.0469 27.8789 24.5195 27.9648 28.2852H31.5859C32.7344 28.207 33.7617 28.0391 34.668 27.7812C35.5742 27.5234 36.3281 27.1953 36.9297 26.7969C37.5391 26.3906 38.0391 25.9727 38.4297 25.543C38.8281 25.1055 39.1719 24.6172 39.4609 24.0781C39.6641 24.1562 39.7969 24.2617 39.8594 24.3945C39.5391 24.9883 39.2891 25.4688 39.1094 25.8359C38.9375 26.2031 38.7461 26.6875 38.5352 27.2891C38.332 27.8828 38.1992 28.4531 38.1367 29H27.9648C25.8477 29 24.0312 29.0234 22.5156 29.0703C22.4844 28.9766 22.4688 28.8984 22.4688 28.8359C22.4688 28.7812 22.4844 28.6758 22.5156 28.5195C22.875 28.4883 23.1641 28.457 23.3828 28.4258C23.6094 28.3867 23.8828 28.3281 24.2031 28.25C24.5312 28.1719 24.7812 28.0625 24.9531 27.9219C25.125 27.7734 25.2148 27.5977 25.2227 27.3945C25.3164 24.9492 25.3633 22.4844 25.3633 20C25.3633 17.4688 25.3242 15.2852 25.2461 13.4492C25.2383 13.2461 25.1484 13.0742 24.9766 12.9336C24.8047 12.7852 24.5547 12.6719 24.2266 12.5938C23.9062 12.5156 23.6328 12.4609 23.4062 12.4297C23.1875 12.3906 22.8984 12.3555 22.5391 12.3242C22.5078 12.1836 22.4922 12.0859 22.4922 12.0312C22.4922 11.9531 22.5078 11.8672 22.5391 11.7734ZM49.6211 11.5977C49.7383 11.5117 49.8633 11.457 49.9961 11.4336L56.4062 27.4414C56.4844 27.6367 56.6133 27.8047 56.793 27.9453C56.9727 28.0781 57.1953 28.1836 57.4609 28.2617C57.7344 28.332 57.9688 28.3867 58.1641 28.4258C58.3672 28.457 58.6133 28.4883 58.9023 28.5195C58.9336 28.6445 58.9492 28.75 58.9492 28.8359C58.9492 28.9297 58.9336 29.0156 58.9023 29.0938C57.2148 29.0312 55.9531 29 55.1172 29C54.2109 29 52.8984 29.0312 51.1797 29.0938C51.1484 29 51.1328 28.9062 51.1328 28.8125C51.1328 28.7109 51.1484 28.6133 51.1797 28.5195C52.7578 28.3477 53.5469 28.0508 53.5469 27.6289C53.5469 27.4961 53.5312 27.3594 53.5 27.2188L51.8008 22.8594C51.2852 22.8438 50.5898 22.8359 49.7148 22.8359C49.3008 22.8359 48.2266 22.8516 46.4922 22.8828L44.6992 27.4414V27.582C44.6992 27.6602 44.7109 27.7344 44.7344 27.8047C44.7656 27.875 44.8125 27.9375 44.875 27.9922C44.9453 28.0469 45.0117 28.0938 45.0742 28.1328C45.1367 28.1719 45.2227 28.2109 45.332 28.25C45.4492 28.2812 45.5469 28.3086 45.625 28.332C45.7109 28.3477 45.8242 28.3672 45.9648 28.3906C46.1133 28.4141 46.2266 28.4336 46.3047 28.4492C46.3828 28.457 46.4961 28.4688 46.6445 28.4844C46.8008 28.5 46.9102 28.5117 46.9727 28.5195C47.0039 28.6445 47.0195 28.75 47.0195 28.8359C47.0195 28.8828 47.0039 28.9688 46.9727 29.0938C45.2227 29.0312 44.2383 29 44.0195 29C43.5977 29 42.5117 29.0312 40.7617 29.0938C40.7305 29 40.7148 28.9062 40.7148 28.8125C40.7148 28.7109 40.7305 28.6133 40.7617 28.5195C42.3867 28.332 43.3125 27.9336 43.5391 27.3242L48.5781 14.6211L48.3203 13.9297C48.7656 13.6328 49.0742 13.3125 49.2461 12.9688C49.4258 12.625 49.5508 12.168 49.6211 11.5977ZM49.7148 21.9219C50.4336 21.9219 51 21.9141 51.4141 21.8984L49.1875 16.1328H49.1406L46.9023 21.875C47.6367 21.9062 48.5742 21.9219 49.7148 21.9219ZM59.4766 11.7734C61.1484 11.8359 62.4609 11.8672 63.4141 11.8672C64.3281 11.8672 65.3359 11.8359 66.4375 11.7734C66.4688 11.8984 66.4844 11.9844 66.4844 12.0312C66.4844 12.1172 66.4688 12.2148 66.4375 12.3242C65.7578 12.3555 65.2891 12.4414 65.0312 12.582C64.7812 12.7148 64.6562 12.8906 64.6562 13.1094C64.6562 13.1719 64.6641 13.2461 64.6797 13.332C64.7031 13.4102 66.2891 17.3281 69.4375 25.0859H69.5547L71.8398 18.9922L69.7773 13.7656C69.4492 12.9219 68.6641 12.4414 67.4219 12.3242C67.3906 12.1836 67.375 12.0859 67.375 12.0312C67.375 11.9531 67.3906 11.8672 67.4219 11.7734C68.5234 11.8359 69.7461 11.8672 71.0898 11.8672C72.3242 11.8672 73.4922 11.8359 74.5938 11.7734C74.625 11.8984 74.6406 11.9844 74.6406 12.0312C74.6406 12.1172 74.625 12.2148 74.5938 12.3242C73.6484 12.3555 73.0352 12.4297 72.7539 12.5469C72.4805 12.6562 72.3438 12.8672 72.3438 13.1797C72.3438 13.1875 72.3984 13.3828 72.5078 13.7656L76.832 25.0859H76.9492L81.2266 13.6133C81.2734 13.4961 81.2969 13.3438 81.2969 13.1562C81.2969 12.9062 81.1445 12.7266 80.8398 12.6172C80.5352 12.5 80.0391 12.4023 79.3516 12.3242C79.3203 12.1523 79.3047 12.0469 79.3047 12.0078C79.3047 11.9453 79.3203 11.8672 79.3516 11.7734C80.3125 11.8203 81.2305 11.8438 82.1055 11.8438C82.957 11.8438 83.7969 11.8203 84.625 11.7734C84.6562 11.8672 84.6719 11.9453 84.6719 12.0078C84.6719 12.1328 84.6562 12.2383 84.625 12.3242C84.0703 12.3789 83.6094 12.4961 83.2422 12.6758C82.8828 12.8555 82.6016 13.168 82.3984 13.6133L76.4453 29.3398H75.918L72.3906 20.4102L69.0508 29.3398H68.5234L62.0898 13.7656C61.7461 12.9375 60.875 12.457 59.4766 12.3242C59.4453 12.1836 59.4297 12.0859 59.4297 12.0312C59.4297 11.9531 59.4453 11.8672 59.4766 11.7734Z" fill="black"/>
</g>
<defs>
<filter id="filter0_d_388_1066" x="116.844" y="11.3867" width="54.6523" height="26.0938" filterUnits="userSpaceOnUse" color-interpolation-filters="sRGB">
<feFlood flood-opacity="0" result="BackgroundImageFix"/>
<feColorMatrix in="SourceAlpha" type="matrix" values="0 0 0 0 0 0 0 0 0 0 0 0 0 0 0 0 0 0 127 0" result="hardAlpha"/>
<feOffset dy="4"/>
<feGaussianBlur stdDeviation="2"/>
<feComposite in2="hardAlpha" operator="out"/>
<feColorMatrix type="matrix" values="0 0 0 0 0 0 0 0 0 0 0 0 0 0 0 0 0 0 0.25 0"/>
<feBlend mode="normal" in2="BackgroundImageFix" result="effect1_dropShadow_388_1066"/>
<feBlend mode="normal" in="SourceGraphic" in2="effect1_dropShadow_388_1066" result="shape"/>
</filter>
<filter id="filter1_d_388_1066" x="0.84375" y="11.4336" width="87.8281" height="25.9062" filterUnits="userSpaceOnUse" color-interpolation-filters="sRGB">
<feFlood flood-opacity="0" result="BackgroundImageFix"/>
<feColorMatrix in="SourceAlpha" type="matrix" values="0 0 0 0 0 0 0 0 0 0 0 0 0 0 0 0 0 0 127 0" result="hardAlpha"/>
<feOffset dy="4"/>
<feGaussianBlur stdDeviation="2"/>
<feComposite in2="hardAlpha" operator="out"/>
<feColorMatrix type="matrix" values="0 0 0 0 0 0 0 0 0 0 0 0 0 0 0 0 0 0 0.25 0"/>
<feBlend mode="normal" in2="BackgroundImageFix" result="effect1_dropShadow_388_1066"/>
<feBlend mode="normal" in="SourceGraphic" in2="effect1_dropShadow_388_1066" result="shape"/>
</filter>
</defs>
</svg>
